<?xml version="1.0" standalone="no"?>
<!DOCTYPE svg PUBLIC "-//W3C//DTD SVG 20010904//EN"
 "http://www.w3.org/TR/2001/REC-SVG-20010904/DTD/svg10.dtd">
<svg version="1.0" xmlns="http://www.w3.org/2000/svg"
 width="1158.000000pt" height="1158.000000pt" viewBox="0 0 1158.000000 1158.000000"
 preserveAspectRatio="xMidYMid meet">
<metadata>
Created by potrace 1.14, written by Peter Selinger 2001-2017
</metadata>
<g transform="translate(0.000000,1158.000000) scale(0.100000,-0.100000)"
fill="#000000" stroke="none">
<path d="M4759 9616 c-2 -2 -38 -6 -79 -10 -150 -12 -305 -33 -450 -61 -28 -6
-230 -54 -245 -59 -18 -5 -100 -28 -110 -31 -5 -1 -17 -5 -25 -8 -14 -5 -120
-40 -130 -42 -3 -1 -12 -5 -20 -8 -19 -8 -133 -51 -140 -52 -10 -3 -65 -26
-100 -43 -19 -9 -37 -17 -40 -17 -14 -1 -279 -137 -365 -189 -346 -205 -624
-429 -895 -722 -57 -61 -180 -209 -215 -258 -11 -16 -25 -33 -31 -40 -15 -16
-184 -264 -184 -270 0 -3 -18 -33 -40 -68 -52 -80 -220 -414 -213 -422 4 -3 1
-6 -5 -6 -7 0 -11 -3 -10 -7 2 -12 -16 -52 -24 -52 -5 -1 -21 -1 -38 -1 l-30
0 0 -103 c0 -78 -5 -115 -20 -157 -21 -57 -67 -211 -74 -252 -3 -13 -5 -23 -6
-23 -1 0 -3 -7 -5 -15 -2 -8 -7 -26 -10 -40 -3 -14 -8 -38 -10 -55 -2 -16 -5
-31 -6 -32 -2 -3 -2 -6 -12 -48 -8 -36 -18 -90 -22 -125 -2 -14 -6 -34 -8 -45
-3 -12 -8 -51 -11 -87 -4 -37 -9 -76 -11 -86 -5 -29 -17 -203 -16 -232 1 -13
-2 -20 -7 -15 -8 10 -60 140 -64 160 -1 6 -19 53 -40 105 -22 52 -40 103 -41
113 -1 9 -5 17 -9 17 -4 0 -8 5 -8 10 0 10 -130 360 -152 410 -6 14 -12 30
-14 35 -2 10 -47 129 -64 170 -5 11 -23 58 -40 105 -32 89 -38 103 -62 160
l-15 35 -69 -2 c-38 -1 -85 -2 -104 -2 -38 -1 -36 3 -91 -151 -11 -30 -23 -64
-28 -75 -5 -11 -18 -45 -29 -75 -62 -164 -95 -249 -109 -283 -9 -21 -16 -44
-16 -52 0 -8 -4 -15 -9 -15 -4 0 -8 -6 -8 -12 0 -7 -23 -71 -51 -143 -28 -71
-54 -141 -59 -155 -5 -14 -22 -61 -39 -105 -28 -72 -31 -91 -31 -192 l0 -111
51 -4 c61 -4 56 -10 110 150 22 65 44 126 49 137 5 11 12 30 15 43 6 21 12 22
96 22 134 1 411 1 477 0 l57 0 18 -53 c9 -28 19 -59 22 -67 2 -8 21 -63 42
-122 l38 -107 73 -3 c40 -2 77 1 81 5 18 18 25 -22 27 -143 2 -128 10 -272 19
-357 12 -103 21 -166 35 -245 6 -35 13 -74 15 -88 10 -56 82 -347 94 -375 4
-11 23 -67 41 -125 18 -58 36 -109 40 -115 4 -5 13 -28 20 -50 7 -22 19 -50
26 -62 8 -13 12 -23 9 -23 -3 0 2 -15 12 -32 9 -18 17 -35 18 -38 1 -15 109
-230 162 -325 65 -115 197 -323 213 -335 4 -3 12 -14 18 -26 32 -61 257 -326
394 -464 118 -119 346 -320 364 -320 4 0 14 -8 23 -18 36 -39 282 -204 431
-289 128 -72 305 -159 420 -206 120 -48 124 -50 133 -52 4 -2 9 -4 12 -5 3 -1
8 -3 13 -5 4 -1 16 -5 27 -9 63 -24 75 -28 78 -25 2 2 11 -2 20 -10 10 -7 17
-11 17 -7 0 3 17 -1 38 -9 20 -8 46 -16 57 -18 11 -1 25 -5 30 -9 11 -6 227
-59 301 -73 11 -2 20 -4 22 -5 1 -2 10 -3 20 -4 9 -1 37 -6 62 -10 60 -10 90
-15 131 -20 19 -3 48 -7 64 -10 151 -27 683 -28 883 -1 18 2 51 7 72 10 22 3
59 7 83 11 23 3 49 7 57 9 8 2 35 7 60 11 25 3 50 7 55 9 6 1 29 6 53 10 23 4
45 12 48 16 3 5 9 7 13 4 5 -2 57 9 117 26 165 46 193 54 264 81 36 14 67 26
70 26 3 0 18 5 33 11 16 6 30 11 33 11 10 0 264 114 339 152 140 72 286 158
430 256 77 52 145 100 150 106 6 6 37 31 70 56 33 24 65 49 71 55 6 5 40 35
75 65 141 121 375 367 468 490 14 19 28 37 31 40 14 13 101 133 155 215 33 50
62 92 65 95 3 3 12 19 22 35 9 17 45 82 81 145 69 125 150 290 188 385 13 33
26 62 29 65 3 3 7 12 9 20 2 8 31 95 64 192 56 166 61 177 79 167 38 -21 182
-29 278 -17 25 4 71 16 102 28 32 12 61 21 64 20 4 -1 10 2 13 7 3 5 17 16 31
24 l25 16 0 193 0 193 -24 4 c-14 2 -27 5 -29 7 -2 2 -17 0 -33 -4 -18 -5 -29
-5 -29 1 0 6 -6 7 -16 1 -9 -5 -34 -6 -55 -2 -21 4 -39 4 -39 1 0 -4 -22 -6
-50 -4 l-50 4 0 -51 c0 -57 -11 -52 123 -52 77 1 77 1 78 -26 3 -76 -1 -214
-6 -222 -13 -20 -122 -43 -200 -42 -85 1 -104 4 -147 21 -31 12 -33 19 -17 76
6 22 13 49 14 60 2 11 8 45 15 75 6 30 13 71 16 90 2 19 6 46 9 60 13 68 32
245 34 316 1 45 -2 43 90 44 44 0 85 -7 141 -25 26 -9 82 -38 109 -59 19 -14
36 -26 38 -26 2 0 3 29 3 65 0 53 -3 67 -17 72 -10 3 -30 15 -45 25 -16 11
-28 17 -28 14 0 -3 -18 1 -40 9 -22 8 -40 12 -40 8 0 -3 -6 -1 -12 4 -13 10
-57 15 -141 17 l-48 1 -5 195 c-2 107 -6 215 -8 240 -8 78 -17 153 -26 214 -5
32 -7 63 -4 67 3 5 0 9 -6 9 -6 0 -9 4 -6 8 3 4 0 28 -6 53 -5 24 -11 55 -13
69 -1 14 -10 57 -20 95 -9 39 -18 77 -20 85 -6 28 -49 181 -70 250 -12 40 -64
185 -73 204 -5 11 -23 55 -40 96 -44 109 -76 184 -84 195 -4 6 -30 53 -56 105
-77 149 -139 253 -226 379 -28 40 -55 81 -61 89 -11 18 -12 19 -97 128 -35 44
-69 87 -76 95 -131 151 -314 337 -422 429 -36 30 -70 59 -76 65 -6 5 -26 21
-44 35 -37 27 -92 72 -100 80 -3 3 -12 10 -21 15 -9 6 -56 37 -104 70 -149
102 -184 125 -193 125 -4 0 -19 10 -32 23 -14 12 -25 20 -25 18 0 -4 -64 27
-123 61 -79 45 -295 147 -322 152 -3 1 -11 5 -17 9 -7 5 -13 5 -13 0 0 -4 -4
-3 -8 3 -4 6 -29 19 -57 28 -186 66 -252 88 -265 92 -8 2 -58 15 -110 29 -52
14 -106 28 -120 31 -14 3 -33 7 -42 10 -10 3 -28 7 -40 10 -23 4 -53 10 -98
19 -42 8 -83 15 -130 21 -25 3 -52 7 -60 9 -8 2 -49 7 -90 11 -41 3 -84 8 -95
11 -23 6 -551 14 -556 9z m-4060 -2974 c50 -134 91 -247 91 -250 0 -5 -459 -8
-492 -3 -4 1 2 25 13 54 11 28 30 79 41 112 12 33 25 71 31 85 6 14 11 30 13
35 9 31 40 111 44 115 3 3 6 10 7 15 3 16 83 236 90 248 3 5 21 -30 39 -79 18
-49 74 -199 123 -332z"/>
<path d="M10497 5674 c-1 -1 -26 -4 -55 -7 -108 -11 -199 -78 -233 -172 -33
-92 -1 -214 70 -264 29 -21 119 -57 161 -65 115 -20 179 -41 216 -70 23 -17
40 -34 38 -38 -2 -4 0 -9 6 -13 13 -8 13 -86 1 -118 -38 -98 -199 -129 -381
-72 -20 6 -51 19 -82 35 l-38 19 -1 -27 c-1 -15 0 -31 1 -37 1 -5 3 -23 4 -40
1 -29 4 -31 71 -48 101 -26 131 -30 210 -31 173 -1 278 46 332 146 25 49 24
180 -3 243 -20 47 -114 121 -161 127 -4 1 -28 8 -53 15 -25 8 -63 16 -85 19
-60 9 -146 41 -167 63 -37 41 -35 127 5 171 54 61 144 75 297 46 32 -6 75 -20
99 -32 14 -8 28 -14 31 -14 3 0 6 26 6 58 l1 58 -41 12 c-23 7 -52 15 -66 18
-43 9 -178 23 -183 18z"/>
<path d="M9445 5646 c-2 -6 -3 -27 -2 -46 0 -20 -2 -41 -6 -47 -4 -6 -3 -14 2
-17 6 -4 6 -18 1 -36 -5 -17 -6 -30 -2 -30 9 0 7 -113 -2 -128 -3 -6 -3 -13 1
-15 10 -6 8 -151 -1 -166 -4 -6 -4 -11 1 -11 10 0 9 -112 -1 -128 -4 -7 -4
-12 1 -12 8 0 9 -231 0 -253 -5 -12 15 -19 53 -18 91 2 122 1 129 -4 5 -3 11
0 13 6 2 7 12 7 28 1 14 -5 34 -6 45 -2 11 4 34 4 52 -1 18 -4 33 -3 33 1 0 8
57 6 66 -3 3 -3 19 -1 35 3 16 5 41 5 57 2 15 -4 39 -6 55 -4 26 3 27 6 27 56
l0 52 -230 -1 c-199 0 -230 2 -231 15 -1 8 -2 83 -3 166 l-1 151 218 -1 c167
-1 217 2 218 12 1 16 1 68 0 85 -1 9 -52 12 -218 12 l-217 0 -1 125 c-1 69 0
130 2 135 2 6 85 9 228 8 205 -2 225 0 226 15 1 9 0 22 -1 27 -2 6 -2 22 -1
36 l1 25 -286 0 c-192 0 -287 -3 -289 -10z"/>
<path d="M10909 5651 c0 -3 -1 -26 -2 -51 l-2 -45 158 -1 c86 0 160 -3 163 -7
3 -3 6 -180 5 -394 0 -213 2 -395 5 -404 3 -10 12 -15 22 -13 9 3 35 6 57 7
l40 2 0 397 c0 218 3 400 7 404 4 4 55 7 113 7 l105 0 0 51 0 52 -335 0 c-184
0 -335 -2 -336 -5z"/>
</g>
</svg>
